<svg width="512" height="512" xmlns="http://www.w3.org/2000/svg">

 <g>
  <title>background</title>
  <rect fill="none" id="canvas_background" height="514" width="514" y="-1" x="-1"/>
 </g>
 <g>
  <title>Layer 1</title>
  <g stroke="null" transform="rotate(0.08392341434955597 255.9624938964548,255.50193786620673) " id="facebook__x2C__social__x2C__media_x2C__social__x2C__media_x2C_">
   <g stroke="null" id="svg_1">
    <path stroke="null" id="svg_2" fill-rule="evenodd" clip-rule="evenodd" fill="#666d89" d="m436.916845,74.886456c-46.33628,-46.256301 -110.247324,-74.821547 -180.957029,-74.821547c-70.708639,0 -134.617549,28.565246 -180.954896,74.820483c-46.337347,46.253107 -74.961268,110.039703 -74.961268,180.617611c0,70.574714 28.623922,134.366634 74.961268,180.617611c46.337347,46.255236 110.24519,74.818353 180.954896,74.818353c70.709705,0 134.620749,-28.563117 180.957029,-74.818353c46.337347,-46.250978 74.964468,-110.042897 74.964468,-180.617611c0,-70.576844 -28.626055,-134.36344 -74.964468,-180.616547zm-14.025039,347.231002c-42.794022,42.577984 -101.74953,68.884073 -166.93199,68.884073c-65.180326,0 -124.132635,-26.306089 -166.784796,-68.884073c-42.655361,-42.709999 -69.152434,-101.550296 -69.152434,-166.613391c0,-65.060965 26.497074,-123.901263 69.152434,-166.473923c42.652161,-42.572661 101.604469,-69.025669 166.784796,-69.025669c65.18246,0 124.137968,26.453008 166.93199,69.025669c42.652161,42.572661 69.00844,101.412958 69.00844,166.473923c0,65.063094 -26.356279,123.903392 -69.00844,166.613391z"/>
    <path stroke="null" id="svg_3" fill-rule="evenodd" clip-rule="evenodd" fill="#666d89" d="m277.334961,182.37955c0,-10.042711 4.839273,-14.176692 9.66468,-14.176692c4.673946,0 30.867032,0 30.867032,0l0,-45.779344l-41.92579,0c-44.918737,0 -56.203619,35.909105 -56.203619,57.410491l0,20.30793l-25.598976,0l0,34.710325l0,16.392199l25.598976,0c0,61.748883 0,134.144125 0,134.144125l57.597696,0c0,0 0,-72.395242 0,-134.144125l34.883938,0l1.701265,-19.964053l3.119875,-31.138471l-39.705079,0l0,-17.762386z"/>
   </g>
  </g>
  <g id="Layer_1"/>
 </g>
</svg>