<svg width="512" height="512" xmlns="http://www.w3.org/2000/svg">

 <g>
  <title>background</title>
  <rect fill="none" id="canvas_background" height="402" width="582" y="-1" x="-1"/>
 </g>
 <g>
  <title>Layer 1</title>
  <g stroke="null" id="svg_1">
   <path stroke="null" id="svg_2" fill="#666d89" d="m0,251.727158c1.95354,-59.871067 20.255125,-111.582534 56.755477,-156.460335c42.772243,-52.731417 98.293905,-84.553858 166.050897,-93.019443c78.758506,-9.79152 148.263401,12.44339 206.35551,66.092762c51.511764,47.529672 78.655688,106.992758 81.431771,176.757341c2.981719,75.476302 -22.825572,140.345124 -76.702148,193.586516c-41.332793,40.899996 -91.610742,64.970817 -149.908487,70.988522c-81.534589,8.36359 -151.862027,-16.523191 -209.645683,-73.844382c-42.772243,-42.429921 -66.625994,-94.345378 -73.000704,-154.11445c-1.028179,-10.60748 -1.336633,-21.520946 -1.336633,-29.986531zm255.194009,239.892248c127.905458,0.509975 234.527613,-102.708968 235.864246,-233.160577c1.336633,-132.899489 -105.696794,-237.342373 -233.088163,-238.464318c-129.242091,-1.121945 -236.789607,102.708968 -237.509332,233.466562c-0.925361,132.287519 104.154525,238.158333 234.733249,238.158333z"/>
   <path stroke="null" id="svg_3" fill="#666d89" d="m274.832227,231.940128c1.43945,0.305985 1.850722,-0.713965 2.467629,-1.529925c15.731138,-22.948876 38.248256,-30.292516 64.87809,-27.028676c31.873547,3.87581 52.231489,24.274811 59.223106,57.627177c1.542268,7.34364 2.261994,14.789275 2.261994,22.234911c0.102818,35.494261 0,70.988522 0.102818,106.584778c0,3.46783 -0.822543,4.69177 -4.523987,4.589775c-16.142409,-0.20399 -32.182,-0.20399 -48.32441,0c-4.009898,0.101995 -4.832441,-1.22394 -4.832441,-4.89576c0.102818,-32.638401 0.102818,-65.276802 0,-97.915203c0,-6.32369 -0.514089,-12.44339 -2.673265,-18.563091c-3.290173,-9.281545 -9.664882,-15.197255 -18.815674,-18.665086c-24.676294,-9.281545 -49.146953,6.425685 -49.455406,32.536406c-0.411272,32.842391 -0.102818,65.582787 -0.102818,98.425178c0,8.97556 0,8.97556 -9.356428,8.97556c-14.394505,0 -28.78901,-0.101995 -43.183515,0.101995c-3.701444,0 -5.038077,-0.713965 -5.038077,-4.69177c0.205636,-58.647127 0.102818,-117.294254 0.102818,-175.839386c0,-3.05985 0.719725,-4.0798 4.009898,-4.0798c16.450863,0.20399 32.901726,0.101995 49.352588,0c3.187355,0 4.215534,0.917955 4.009898,4.0798c-0.308454,5.91571 -0.102818,12.03541 -0.102818,18.053116z"/>
   <path stroke="null" id="svg_4" fill="#666d89" d="m124.615286,302.72466c0,-28.762591 0.102818,-57.423187 -0.102818,-86.185778c0,-4.89576 1.542268,-5.91571 6.066256,-5.813715c15.422684,0.305985 30.845368,0.20399 46.268052,0c3.701444,0 5.038077,0.81596 5.038077,4.793765c-0.102818,58.137152 -0.102818,116.274304 0,174.411456c0,3.67182 -1.233815,4.48778 -4.729623,4.48778c-15.936773,-0.20399 -31.873547,-0.20399 -47.81032,0c-4.009898,0.101995 -4.729623,-1.42793 -4.729623,-4.997755c0.102818,-28.864586 0,-57.831167 0,-86.695753z"/>
   <path stroke="null" id="svg_5" fill="#666d89" d="m122.764564,145.244375c0.205636,-16.829176 12.440965,-28.354611 30.125643,-28.252616c17.170588,0.20399 29.097464,12.44339 28.78901,29.578551c-0.308454,16.421196 -12.852237,28.252616 -29.920007,28.150621c-17.06777,0 -29.097464,-12.341395 -28.994646,-29.476556z"/>
  </g>
 </g>
</svg>