<svg width="512" height="512" xmlns="http://www.w3.org/2000/svg">

 <g>
  <title>background</title>
  <rect fill="none" id="canvas_background" height="402" width="582" y="-1" x="-1"/>
 </g>
 <g>
  <title>Layer 1</title>
  <g stroke="null" id="twitter__x2C__social__x2C__media__x2C__icons_x2C_">
   <g stroke="null" id="svg_1">
    <path stroke="null" id="svg_2" fill-rule="evenodd" clip-rule="evenodd" fill="#666d89" d="m436.05,74.81474c-46.253728,-46.107154 -110.038243,-74.81474 -180.613849,-74.81474c-70.579865,0 -134.365445,28.707585 -180.609591,74.81474c-46.259051,46.250873 -74.826559,110.175978 -74.826559,180.754737c0,70.428652 28.567508,134.363338 74.826559,180.606759c46.244146,46.108219 110.029726,74.81474 180.609591,74.81474c70.575606,0 134.360121,-28.707585 180.613849,-74.81474c46.249469,-46.243421 74.816977,-110.178108 74.816977,-180.606759c0,-70.578758 -28.566444,-134.502799 -74.816977,-180.754737zm-14.145356,347.222749c-42.576595,42.570605 -101.404327,69.017013 -166.468493,69.017013c-65.069489,0 -123.897221,-26.446408 -166.473816,-69.017013c-42.708606,-42.571669 -69.019159,-101.54965 -69.019159,-166.466948c0,-65.059952 26.310554,-124.038998 69.019159,-166.609602c42.576595,-42.575928 101.404327,-68.878617 166.473816,-68.878617c65.064166,0 123.891898,26.302689 166.468493,68.878617c42.712864,42.570605 69.019159,101.54965 69.019159,166.609602c0,64.917298 -26.306295,123.894214 -69.019159,166.466948z"/>
    <path stroke="null" id="svg_3" fill-rule="evenodd" clip-rule="evenodd" fill="#666d89" d="m378.768068,155.007761c-10.326631,6.079842 -21.923332,10.464866 -34.083207,12.868697c-9.632512,-10.319017 -23.621371,-16.687362 -39.182647,-16.687362c-29.419189,0 -53.46853,23.621001 -53.46853,52.610701c0,4.244498 0.715412,8.206882 1.56177,12.027676c-44.55143,-2.123846 -84.015132,-23.056771 -110.325685,-55.021985c-4.524555,7.920509 -7.350007,16.83321 -7.350007,26.449602c0,18.386439 10.51826,34.508506 24.659357,43.845977c-8.764862,-0.14159 -17.954499,-2.54968 -23.277505,-6.507805c0,0.284244 0,0.424769 0,0.706884c0,6.788855 0.37261,13.014545 2.770092,18.951733c6.514295,16.553224 20.915155,28.995023 38.878171,32.531573c-4.674664,1.274308 -9.424914,1.974804 -14.372116,1.974804c-3.395013,0 -6.902874,-0.42264 -10.162683,-1.129524c6.936941,20.936119 26.537314,36.209712 49.880824,36.773942c-18.39205,14.14407 -41.329947,22.486154 -66.366173,22.486154c-4.392544,0 -8.50084,-0.282115 -12.883804,-0.704755c23.756575,14.849889 51.897178,23.621001 82.026457,23.621001c83.590356,0 134.954169,-57.850586 148.384113,-117.959156c2.413451,-10.744851 3.281101,-21.353436 3.281101,-31.819366c0,-2.264371 0,-4.665009 0,-6.78992c10.646012,-7.495739 19.773902,-16.83321 26.848177,-27.298076c-9.481338,4.105038 -19.677024,6.933639 -30.568958,8.344213c11.175119,-6.644072 19.782419,-16.830016 23.751252,-29.275009z"/>
   </g>
  </g>
  <g id="Layer_1"/>
 </g>
</svg>